<svg xmlns="http://www.w3.org/2000/svg" width="65.062" height="77.576" viewBox="0 0 65.062 77.576"><defs><style>.a{fill:#c1d100;}.b{fill:#fff;}</style></defs><path class="a" d="M32.531,0A32.531,32.531,0,0,1,65.062,32.531c0,17.966-32.531,45.045-32.531,45.045S0,50.5,0,32.531A32.531,32.531,0,0,1,32.531,0Z"/><g transform="translate(12 3.864)"><path class="b" d="M46.464,23.527a.591.591,0,0,0-.172-.417l-3.76-3.78a.591.591,0,0,0-.418-.174H26.2c1.509-1.956,6.3-8.42,6.3-11.7a7.2,7.2,0,0,0-14.405,0c0,3.284,4.789,9.748,6.3,11.7H9.1a.591.591,0,0,0-.426.181L5.183,22.967a.584.584,0,0,0-.436.56A3.973,3.973,0,0,0,8.716,27.5c.035,0,.067-.009.1-.01V49.659a.591.591,0,0,0,.591.591H42.1a.591.591,0,0,0,.591-.591V27.477A3.964,3.964,0,0,0,46.464,23.527ZM25.3,1.432a6.028,6.028,0,0,1,6.021,6.021c0,2.608-3.991,8.314-6.021,10.945-2.031-2.63-6.021-8.337-6.021-10.945A6.028,6.028,0,0,1,25.3,1.432ZM41.868,20.338l2.727,2.741H39.539l-1.632-2.741Zm-27.038,0h4.345l-.809,2.741H13.083l1.725-2.686A.467.467,0,0,0,14.83,20.338Zm10.032,0,.132,2.741H19.6l.809-2.741Zm5.266,0,1.353,2.741H26.175l-.13-2.741Zm-11.98,3.922a2.777,2.777,0,0,1-5.362,0Zm6.756,0a2.773,2.773,0,0,1-5.356,0Zm1.408,0h5.349a2.768,2.768,0,0,1-5.349,0Zm11.851-1.182H32.8l-1.354-2.741h5.085Zm.253,1.182a2.771,2.771,0,0,1-5.353,0ZM9.349,20.338H13.44l-1.761,2.741H6.715ZM6.04,24.261h5.353A2.78,2.78,0,0,1,9.47,26.2a.544.544,0,0,0-.062-.013.572.572,0,0,0-.293.089A2.682,2.682,0,0,1,6.04,24.261Zm3.959,3a3.958,3.958,0,0,0,2.1-1.682,3.939,3.939,0,0,0,6.756,0,3.93,3.93,0,0,0,6.312.592V49.068H10Zm16.345,21.8v-22.6a3.925,3.925,0,0,0,6.02-.888,3.936,3.936,0,0,0,6.756,0,3.956,3.956,0,0,0,2.387,1.776V49.068ZM42.5,26.315c-.018,0-.035,0-.053-.006a.557.557,0,0,0-.58-.074,2.782,2.782,0,0,1-2.044-1.974h5.363A2.791,2.791,0,0,1,42.5,26.315Z" transform="translate(-4.747 -0.25)"/><path class="b" d="M24.612,39.4H13.825a.591.591,0,0,0-.591.591v6.865a.591.591,0,0,0,.591.591H24.612a.591.591,0,0,0,.591-.591V39.987A.591.591,0,0,0,24.612,39.4Zm-.591,6.865H14.416V40.578h9.605Z" transform="translate(-6.548 -8.557)"/><path class="b" d="M34.157,42.3a.591.591,0,0,0-.591.591v5.557a.591.591,0,0,0,1.182,0V42.892A.591.591,0,0,0,34.157,42.3Z" transform="translate(-10.863 -9.174)"/><path class="b" d="M32.713,6.741a2.574,2.574,0,1,0-2.574,2.574A2.577,2.577,0,0,0,32.713,6.741Zm-3.967,0a1.393,1.393,0,1,1,1.393,1.392A1.394,1.394,0,0,1,28.746,6.741Z" transform="translate(-9.589 -1.081)"/></g></svg>